<?xml version="1.0" standalone="no"?>
<!DOCTYPE svg PUBLIC "-//W3C//DTD SVG 20010904//EN"
 "http://www.w3.org/TR/2001/REC-SVG-20010904/DTD/svg10.dtd">
<svg version="1.0" xmlns="http://www.w3.org/2000/svg"
 width="334.000000pt" height="334.000000pt" viewBox="0 0 334.000000 334.000000"
 preserveAspectRatio="xMidYMid meet">
<metadata>
Created by potrace 1.11, written by Peter Selinger 2001-2013
</metadata>
<g transform="translate(0.000000,334.000000) scale(0.100000,-0.100000)"
fill="#000000" stroke="none">
<path d="M1430 2700 c-317 -32 -605 -111 -815 -221 -179 -95 -251 -146 -372
-267 -68 -68 -123 -128 -123 -134 0 -6 -10 -27 -22 -47 -24 -37 -34 -61 -74
-171 -20 -55 -23 -84 -23 -190 0 -106 3 -135 23 -190 40 -110 50 -134 74 -171
12 -20 22 -41 22 -47 0 -6 51 -62 113 -125 122 -124 260 -223 397 -284 41 -19
93 -42 115 -53 50 -23 278 -93 370 -114 172 -38 307 -51 545 -50 254 0 385 14
580 60 116 27 366 110 390 129 8 6 31 18 50 25 103 39 278 160 390 271 71 70
170 196 170 217 0 5 13 38 29 73 43 94 59 229 42 356 -15 113 -66 240 -133
330 -59 81 -184 200 -269 258 -41 28 -79 55 -86 61 -6 6 -46 28 -90 48 -43 21
-90 44 -105 52 -46 25 -248 93 -352 119 -236 59 -617 88 -846 65z m605 -69
c162 -25 303 -60 442 -110 107 -38 304 -134 373 -182 84 -58 180 -134 180
-142 0 -5 28 -37 63 -72 114 -117 182 -287 182 -455 0 -168 -68 -338 -182
-455 -35 -35 -63 -68 -63 -73 0 -9 -85 -75 -205 -158 -178 -123 -490 -230
-815 -280 -224 -35 -685 -21 -860 26 -19 5 -72 19 -118 30 -275 68 -567 215
-717 361 -33 32 -70 66 -82 74 -13 9 -23 21 -23 26 0 6 -15 29 -34 51 -72 83
-136 272 -136 398 0 119 59 298 127 389 66 87 193 207 283 266 279 184 552
275 970 325 123 15 467 4 615 -19z"/>
<path d="M1671 2621 c-15 -27 -14 -63 2 -85 9 -13 23 -17 52 -14 33 2 41 8 49
31 6 17 6 37 0 55 -8 23 -16 27 -51 30 -33 2 -44 -1 -52 -17z"/>
<path d="M1522 2608 c-13 -13 -15 -37 -6 -62 8 -21 58 -21 75 1 13 15 11 16
-13 11 -16 -3 -28 -1 -28 3 0 5 11 9 25 9 14 0 25 6 25 13 0 19 -21 37 -45 37
-12 0 -26 -5 -33 -12z"/>
<path d="M1930 2601 c-5 -11 -8 -26 -6 -33 2 -7 7 -25 10 -40 5 -21 12 -28 31
-28 14 0 25 5 25 10 0 6 -4 10 -10 10 -14 0 -12 47 3 54 10 5 10 7 0 12 -7 3
-13 12 -13 20 0 21 -28 17 -40 -5z"/>
<path d="M1410 2565 c0 -38 3 -45 20 -45 15 0 20 7 20 29 0 16 6 31 15 35 27
10 15 26 -20 26 -35 0 -35 0 -35 -45z"/>
<path d="M1800 2581 c0 -52 8 -61 56 -61 l44 0 0 45 c0 38 -3 45 -20 45 -16 0
-20 -7 -20 -30 0 -16 -4 -30 -10 -30 -5 0 -10 14 -10 30 0 23 -4 30 -20 30
-15 0 -20 -7 -20 -29z"/>
<path d="M1220 2575 c0 -8 -8 -15 -18 -15 -24 0 -42 -19 -42 -45 0 -31 19 -45
62 -45 l38 0 0 60 c0 53 -2 60 -20 60 -11 0 -20 -7 -20 -15z"/>
<path d="M1292 2578 c-7 -7 -12 -21 -12 -33 0 -28 19 -45 50 -45 31 0 50 17
50 45 0 28 -19 45 -50 45 -14 0 -31 -5 -38 -12z"/>
<path d="M2030 2576 c0 -8 -6 -17 -12 -20 -10 -5 -10 -7 0 -12 6 -3 12 -21 12
-40 0 -24 5 -34 15 -34 10 0 15 10 15 34 0 19 6 37 13 39 9 4 8 8 -3 16 -10 7
-11 11 -2 11 6 0 12 5 12 10 0 6 -11 10 -25 10 -15 0 -25 -6 -25 -14z"/>
<path d="M2110 2560 c0 -5 9 -10 20 -10 11 0 20 5 20 10 0 6 -9 10 -20 10 -11
0 -20 -4 -20 -10z"/>
<path d="M2180 2541 c-5 -11 -8 -26 -6 -33 2 -7 7 -25 10 -40 5 -21 12 -28 31
-28 14 0 25 5 25 10 0 6 -4 10 -10 10 -14 0 -12 47 3 54 10 5 10 7 0 12 -7 3
-13 12 -13 20 0 21 -28 17 -40 -5z"/>
<path d="M1062 2528 c-13 -13 -15 -37 -6 -62 8 -21 58 -21 75 1 13 15 11 16
-13 11 -16 -3 -28 -1 -28 3 0 5 11 9 25 9 14 0 25 6 25 13 0 19 -21 37 -45 37
-12 0 -26 -5 -33 -12z"/>
<path d="M2110 2495 c0 -38 3 -45 20 -45 17 0 20 7 20 45 0 38 -3 45 -20 45
-17 0 -20 -7 -20 -45z"/>
<path d="M2270 2521 c-5 -11 -8 -26 -6 -33 2 -7 7 -25 10 -40 5 -21 12 -28 31
-28 14 0 25 5 25 10 0 6 -4 10 -10 10 -14 0 -12 47 3 54 10 5 10 7 0 12 -7 3
-13 12 -13 20 0 21 -28 17 -40 -5z"/>
<path d="M2360 2510 c0 -5 9 -10 20 -10 11 0 20 5 20 10 0 6 -9 10 -20 10 -11
0 -20 -4 -20 -10z"/>
<path d="M940 2494 c0 -4 5 -24 12 -45 13 -45 43 -53 57 -16 23 61 23 67 2 67
-13 0 -21 -7 -21 -17 -1 -17 -1 -17 -11 0 -9 16 -39 24 -39 11z"/>
<path d="M2360 2445 c0 -38 3 -45 20 -45 17 0 20 7 20 45 0 38 -3 45 -20 45
-17 0 -20 -7 -20 -45z"/>
<path d="M2430 2425 c0 -38 3 -45 20 -45 16 0 20 7 20 30 0 17 5 30 10 30 6 0
10 -13 10 -30 0 -23 4 -30 20 -30 15 0 20 7 20 29 0 52 -8 61 -56 61 l-44 0 0
-45z"/>
<path d="M832 2448 c-13 -13 -15 -37 -6 -62 8 -21 58 -21 75 1 13 15 11 16
-13 11 -16 -3 -28 -1 -28 3 0 5 11 9 25 9 14 0 25 6 25 13 0 19 -21 37 -45 37
-12 0 -26 -5 -33 -12z"/>
<path d="M737 2423 c-9 -8 -9 -76 -1 -97 7 -17 54 -22 54 -6 0 6 -4 10 -10 10
-14 0 -12 47 3 54 10 5 10 7 0 12 -7 3 -13 12 -13 20 0 14 -21 19 -33 7z"/>
<path d="M2552 2408 c-7 -7 -12 -21 -12 -33 0 -12 5 -26 12 -33 9 -9 9 -12 0
-12 -6 0 -9 -7 -6 -15 7 -18 65 -20 82 -3 7 7 12 34 12 60 l0 48 -38 0 c-21 0
-43 -5 -50 -12z"/>
<path d="M601 2366 c-15 -18 1 -56 24 -56 7 0 17 -4 20 -10 4 -6 -6 -7 -25 -4
-32 7 -40 -5 -16 -25 20 -17 67 -10 80 12 9 15 7 22 -13 38 -18 15 -20 19 -6
19 10 0 15 6 13 18 -4 22 -60 29 -77 8z"/>
<path d="M748 1944 c-10 -3 -18 -10 -18 -15 0 -5 -6 -9 -12 -9 -23 -1 -65 -46
-77 -83 -17 -49 -5 -99 33 -140 29 -32 103 -67 141 -67 8 0 15 -4 15 -9 0 -5
19 -11 42 -15 45 -7 78 -30 78 -53 0 -8 -7 -27 -15 -42 -29 -57 -150 -47 -180
14 -8 18 -15 38 -15 44 0 18 -109 14 -116 -4 -12 -30 7 -85 42 -123 46 -52 97
-66 211 -60 152 8 199 54 191 183 -4 63 -7 69 -42 101 -38 34 -61 42 -168 64
-32 6 -58 15 -58 20 0 4 -9 10 -20 13 -14 4 -20 14 -20 34 0 26 5 31 40 42 58
17 117 -1 125 -40 6 -28 8 -29 71 -29 61 0 64 1 64 24 0 28 -27 96 -38 96 -4
0 -20 12 -37 27 -27 25 -36 28 -124 30 -53 1 -104 -1 -113 -3z"/>
<path d="M1530 1943 c-8 -3 -17 -9 -20 -12 -3 -3 -23 -15 -44 -27 -23 -12 -48
-37 -60 -60 -12 -21 -25 -42 -29 -45 -34 -25 -33 -256 1 -278 5 -3 12 -15 16
-27 11 -36 66 -82 118 -100 65 -21 207 -16 257 10 41 22 92 74 110 113 20 43
26 174 11 243 -10 48 -21 69 -56 105 -23 25 -47 45 -53 45 -5 0 -17 8 -27 17
-13 14 -38 18 -113 20 -53 1 -103 0 -111 -4z m139 -103 c40 -11 80 -52 92 -94
12 -40 12 -132 0 -172 -19 -66 -92 -110 -159 -98 -36 7 -92 54 -92 78 0 8 -6
16 -12 19 -17 5 -18 174 -2 185 6 4 18 21 27 38 12 23 27 35 54 42 51 13 53
13 92 2z"/>
<path d="M2296 1943 c-11 -3 -26 -12 -34 -20 -8 -8 -25 -21 -37 -29 -28 -18
-48 -84 -39 -130 12 -64 104 -134 175 -134 11 0 19 -4 19 -9 0 -5 19 -11 42
-15 45 -7 78 -30 78 -53 0 -8 -7 -27 -15 -42 -29 -57 -150 -47 -180 14 -8 18
-15 38 -15 45 0 7 -19 10 -57 8 -55 -3 -58 -4 -61 -31 -5 -40 32 -108 75 -137
33 -23 46 -25 148 -25 90 0 119 4 151 19 57 28 78 75 72 160 -4 60 -7 69 -38
98 -36 33 -80 50 -172 68 -32 6 -58 15 -58 20 0 4 -9 10 -20 13 -14 4 -20 14
-20 36 0 27 4 31 40 41 59 16 117 -3 125 -41 6 -28 8 -29 71 -29 61 0 64 1 64
25 0 48 -53 124 -87 125 -6 0 -13 6 -15 13 -5 13 -173 21 -212 10z"/>
<path d="M1160 1440 l0 -50 60 0 60 0 0 50 0 50 -60 0 -60 0 0 -50z"/>
<path d="M1970 1440 l0 -50 60 0 60 0 0 50 0 50 -60 0 -60 0 0 -50z"/>
<path d="M1171 856 c-15 -18 1 -56 24 -56 7 0 17 -4 20 -10 4 -6 -6 -7 -25 -4
-32 7 -40 -5 -16 -25 20 -17 67 -10 80 12 9 15 7 22 -13 38 -18 15 -20 19 -6
19 10 0 15 6 13 18 -4 22 -60 29 -77 8z"/>
<path d="M1292 828 c-13 -13 -15 -37 -6 -62 8 -21 58 -21 75 1 13 15 11 16
-13 11 -16 -3 -28 -1 -28 3 0 5 11 9 25 9 14 0 25 6 25 13 0 19 -21 37 -45 37
-12 0 -26 -5 -33 -12z"/>
<path d="M1640 830 c0 -5 9 -10 20 -10 11 0 20 5 20 10 0 6 -9 10 -20 10 -11
0 -20 -4 -20 -10z"/>
<path d="M1943 824 c-4 -11 1 -22 12 -30 18 -13 18 -14 1 -14 -34 0 -9 -25 27
-28 41 -4 59 17 37 43 -10 12 -10 15 0 15 10 0 10 3 0 15 -17 20 -69 19 -77
-1z"/>
<path d="M1410 775 c0 -38 3 -45 20 -45 15 0 20 7 20 29 0 16 6 31 15 35 27
10 15 26 -20 26 -35 0 -35 0 -35 -45z"/>
<path d="M1842 808 c-13 -13 -15 -37 -6 -62 8 -21 58 -21 75 1 13 15 11 16
-13 11 -16 -3 -28 -1 -28 3 0 5 11 9 25 9 14 0 25 6 25 13 0 19 -21 37 -45 37
-12 0 -26 -5 -33 -12z"/>
<path d="M1510 804 c0 -4 5 -24 12 -45 13 -45 43 -53 57 -16 23 61 23 67 2 67
-13 0 -21 -7 -21 -17 -1 -17 -1 -17 -11 0 -9 16 -39 24 -39 11z"/>
<path d="M1640 765 c0 -38 3 -45 20 -45 17 0 20 7 20 45 0 38 -3 45 -20 45
-17 0 -20 -7 -20 -45z"/>
<path d="M1722 798 c-16 -16 -15 -53 2 -67 8 -7 27 -11 42 -9 36 4 44 28 10
28 -19 0 -26 5 -26 19 0 14 6 17 26 13 20 -4 25 -1 22 9 -6 18 -60 23 -76 7z"/>
</g>
</svg>
